HIERARCHY
ROOT Pelvis
{
	OFFSET 0.000000 0.000000 0.000000
	CHANNELS 6 Xposition Yposition Zposition Xrotation Yrotation Zrotation
	JOINT LeftUpLeg_virtual
	{
		OFFSET 0.000000 0.000000 0.000000
		CHANNELS 3 Xrotation Yrotation Zrotation
		JOINT LeftUpLeg
		{
			OFFSET 18.735201 -5.666702 -4.541200
			CHANNELS 3 Xrotation Yrotation Zrotation
			JOINT LeftLeg
			{
				OFFSET -0.021200 -31.938179 0.493100
				CHANNELS 3 Xrotation Yrotation Zrotation
				JOINT LeftFoot
				{
					OFFSET 0.021200 -31.938179 -4.336299
					CHANNELS 3 Xrotation Yrotation Zrotation
					JOINT LeftToeBase
					{
						OFFSET 0.943001 -26.722000 15.023500
						CHANNELS 3 Xrotation Yrotation Zrotation
						End Site
						{
							OFFSET 0 0 0
						}
					}
				}
			}
		}
	}
	JOINT RightUpLeg_virtual
	{
		OFFSET 0.000000 0.000000 0.000000
		CHANNELS 3 Xrotation Yrotation Zrotation
		JOINT RightUpLeg
		{
			OFFSET -18.735201 -5.666702 -4.541200
			CHANNELS 3 Xrotation Yrotation Zrotation
			JOINT RightLeg
			{
				OFFSET 0.018946 -31.938133 0.493100
				CHANNELS 3 Xrotation Yrotation Zrotation
				JOINT RightFoot
				{
					OFFSET -0.018946 -31.938126 -4.336299
					CHANNELS 3 Xrotation Yrotation Zrotation
					JOINT RightToeBase
					{
						OFFSET -0.943001 -26.722004 15.023500
						CHANNELS 3 Xrotation Yrotation Zrotation
						End Site
						{
							OFFSET 0 0 0
						}
					}
				}
			}
		}
	}
	JOINT Hips_virtual
	{
		OFFSET 0.000000 0.000000 0.000000
		CHANNELS 3 Xrotation Yrotation Zrotation
		JOINT Hips
		{
			OFFSET -0.000000 -0.000000 -0.000000
			CHANNELS 3 Xrotation Yrotation Zrotation
			JOINT Spine
			{
				OFFSET 0.000000 10.199997 -0.299500
				CHANNELS 3 Xrotation Yrotation Zrotation
				JOINT Spine1
				{
					OFFSET 0.000000 11.900002 -1.516600
					CHANNELS 3 Xrotation Yrotation Zrotation
					JOINT Spine2
					{
						OFFSET 0.000000 13.600006 -2.842500
						CHANNELS 3 Xrotation Yrotation Zrotation
						JOINT Neck_virtual
						{
							OFFSET 0.000000 0.000000 0.000000
							CHANNELS 3 Xrotation Yrotation Zrotation
							JOINT Neck
							{
								OFFSET 0.000000 9.624100 -2.890100
								CHANNELS 3 Xrotation Yrotation Zrotation
								JOINT Head
								{
									OFFSET 0.000000 14.068802 -1.351900
									CHANNELS 3 Xrotation Yrotation Zrotation
									End Site
									{
										OFFSET 0 0 0
									}
								}
							}
						}
						JOINT LeftShoulder_virtual
						{
							OFFSET 0.000000 0.000000 0.000000
							CHANNELS 3 Xrotation Yrotation Zrotation
							JOINT LeftShoulder
							{
								OFFSET 15.263000 10.923401 -0.547700
								CHANNELS 3 Xrotation Yrotation Zrotation
								JOINT LeftArm
								{
									OFFSET 25.438599 -2.830597 -13.032500
									CHANNELS 3 Xrotation Yrotation Zrotation
									JOINT LeftForeArm
									{
										OFFSET 29.960503 0.000000 0.000000
										CHANNELS 3 Xrotation Yrotation Zrotation
										JOINT LeftHand
										{
											OFFSET 27.849251 0.000000 0.000000
											CHANNELS 3 Xrotation Yrotation Zrotation
											End Site
											{
												OFFSET 0 0 0
											}
										}
									}
								}
							}
						}
						JOINT RightShoulder_virtual
						{
							OFFSET 0.000000 0.000000 0.000000
							CHANNELS 3 Xrotation Yrotation Zrotation
							JOINT RightShoulder
							{
								OFFSET -15.263000 10.923401 -0.547700
								CHANNELS 3 Xrotation Yrotation Zrotation
								JOINT RightArm
								{
									OFFSET -25.438599 -2.830597 -13.032500
									CHANNELS 3 Xrotation Yrotation Zrotation
									JOINT RightForeArm
									{
										OFFSET -29.960503 0.000000 0.000000
										CHANNELS 3 Xrotation Yrotation Zrotation
										JOINT RightHand
										{
											OFFSET -27.849251 0.000000 0.000000
											CHANNELS 3 Xrotation Yrotation Zrotation
											End Site
											{
												OFFSET 0 0 0
											}
										}
									}
								}
							}
						}
					}
				}
			}
		}
	}
}
MOTION
Frames: 8
Frame Time: 0.03333333
-0.159423 93.558533 3.938099 0.000000 0.000000 0.000000 -7.178098 -4.154054 2.856510 -12.439732 10.999865 7.512227 16.149038 7.108092 1.443932 4.729786 0.319784 -7.597704 0.000000 0.000000 0.000000 -7.178098 -4.154054 2.856510 6.936531 -15.860567 -5.973804 22.412007 -8.954766 -3.397380 -21.561294 -6.562344 9.357460 0.000000 0.000000 0.000000 -7.178098 -4.154054 2.856510 0.000000 0.000000 0.000000 5.267978 2.023183 -1.947488 1.478230 0.730364 -0.788770 0.000000 0.000000 0.000000 1.440798 0.721971 -0.741220 0.955972 0.871913 0.354723 0.000000 0.000000 0.000000 1.440798 0.721971 -0.741220 -0.595444 -16.332002 -20.041821 11.139998 0.583281 -33.762390 -0.003451 -89.545863 -0.003277 0.000000 0.000000 0.000000 1.440798 0.721971 -0.741220 0.754162 18.436586 11.539477 10.691746 23.557106 38.362198 -179.999773 82.036118 179.999786 0.000000 0.000000 0.000000 
-0.020717 93.436295 3.899178 0.000000 0.000000 0.000000 -7.095749 -4.313396 2.894343 -12.977132 10.952517 7.423615 17.116852 6.910450 1.457813 4.237524 0.731197 -7.574121 0.000000 0.000000 0.000000 -7.095749 -4.313396 2.894343 6.202558 -15.721477 -6.334421 23.442357 -8.846824 -3.407125 -21.940695 -6.621942 9.508259 0.000000 0.000000 0.000000 -7.095749 -4.313396 2.894343 0.000000 0.000000 0.000000 5.267307 1.952830 -1.977310 1.478230 0.635007 -0.779718 0.000000 0.000000 0.000000 1.440799 0.631945 -0.712957 0.944504 0.866503 0.305723 0.000000 0.000000 0.000000 1.440799 0.631945 -0.712957 -0.595444 -16.332000 -20.041819 11.399585 0.974253 -33.753924 0.009591 -89.758528 0.009183 0.000000 0.000000 0.000000 1.440799 0.631945 -0.712957 0.751041 18.451094 11.540466 10.590263 23.808713 38.571933 -179.999486 82.226858 179.999513 0.000000 0.000000 0.000000 
0.102816 93.323204 3.856670 0.000000 0.000000 0.000000 -7.012840 -4.467634 2.935455 -13.453973 10.916147 7.331767 17.949428 6.688815 1.471188 3.820663 1.156837 -7.548939 0.000000 0.000000 0.000000 -7.012840 -4.467634 2.935455 5.511795 -15.584313 -6.669310 24.390337 -8.743888 -3.414327 -22.284416 -6.674223 9.638339 0.000000 0.000000 0.000000 -7.012840 -4.467634 2.935455 0.000000 0.000001 0.000000 5.266760 1.889314 -2.008405 1.478231 0.545823 -0.771255 0.000000 0.000000 0.000000 1.440799 0.547799 -0.686543 0.933949 0.861584 0.258522 0.000000 0.000000 0.000000 1.440799 0.547799 -0.686543 -0.595444 -16.332000 -20.041821 11.673889 1.386653 -33.751103 -0.030740 -89.980215 -0.039821 0.000000 0.000000 0.000000 1.440799 0.547799 -0.686543 0.748015 18.465152 11.541425 10.484205 24.073579 38.792937 -179.999486 82.426197 179.999527 0.000000 0.000000 0.000000 
0.218688 93.215347 3.812336 0.000000 0.000000 0.000000 -6.929571 -4.619308 2.978409 -13.893509 10.886961 7.237499 18.700163 6.447968 1.486652 3.448858 1.596655 -7.523937 0.000000 0.000000 0.000000 -6.929571 -4.619308 2.978409 4.849833 -15.448177 -6.988841 25.282913 -8.641872 -3.419971 -22.603242 -6.721919 9.756077 0.000000 0.000000 0.000000 -6.929571 -4.619308 2.978409 0.000001 0.000001 -0.000000 5.266285 1.829228 -2.040222 1.478230 0.459727 -0.763087 0.000000 0.000000 0.000000 1.440798 0.466592 -0.661054 0.923887 0.856875 0.212183 0.000000 0.000000 0.000000 1.440798 0.466592 -0.661054 -0.595444 -16.332000 -20.041817 11.962420 1.823211 -33.756144 -179.999786 -89.790644 -179.997970 0.000000 0.000000 0.000000 1.440798 0.466592 -0.661054 0.744927 18.479493 11.542406 10.372846 24.349276 39.024381 179.999404 82.633159 -179.999418 0.000000 0.000000 0.000000 
0.333917 93.109993 3.767689 0.000000 0.000000 0.000000 -6.846138 -4.771048 3.022295 -14.313070 10.863406 7.138860 19.409190 6.192902 1.501583 3.098638 2.049945 -7.493150 0.000000 0.000000 0.000000 -6.846138 -4.771048 3.022295 4.205128 -15.311980 -7.301938 26.140515 -8.537583 -3.422024 -22.904925 -6.766191 9.865664 0.000000 0.000000 0.000000 -6.846138 -4.771048 3.022295 0.000000 0.000000 0.000000 5.265855 1.769233 -2.072744 1.478231 0.373632 -0.754921 0.000000 0.000000 0.000000 1.440798 0.385385 -0.635565 0.913844 0.852183 0.165802 0.000000 0.000000 0.000000 1.440798 0.385385 -0.635565 -0.595444 -16.332002 -20.041821 12.260826 2.275645 -33.762636 179.995511 -89.544572 179.995401 0.000000 0.000000 0.000000 1.440798 0.385385 -0.635565 0.745095 18.495000 11.543407 10.252223 24.630863 39.267444 179.999568 82.846889 -179.999582 0.000000 0.000000 0.000000 
0.455232 93.005096 3.724051 0.000000 0.000000 0.000000 -6.762728 -4.925515 3.066398 -14.723128 10.844997 7.033387 20.102985 5.928218 1.515795 2.753489 2.515948 -7.453003 0.000000 0.000000 0.000000 -6.762728 -4.925515 3.066398 3.570436 -15.174107 -7.617914 26.974816 -8.426188 -3.422751 -23.192134 -6.809740 9.975533 0.000000 0.000000 0.000000 -6.762728 -4.925515 3.066398 0.000000 0.000000 0.000000 5.265448 1.705962 -2.106143 1.478230 0.284448 -0.746464 0.000000 0.000000 0.000000 1.440799 0.301237 -0.609156 0.903680 0.847266 0.118445 0.000000 0.000000 0.000000 1.440799 0.301237 -0.609156 -0.595444 -16.331997 -20.041821 12.568538 2.744950 -33.772021 -179.999377 -89.290032 -179.999650 0.000000 0.000000 0.000000 1.440799 0.301237 -0.609156 0.746525 18.509866 11.541853 10.125557 24.920382 39.519939 -179.999732 83.066302 179.999718 0.000000 0.000000 0.000000 
0.589324 92.898819 3.682737 0.000000 0.000000 0.000000 -6.679524 -5.085387 3.110124 -15.132643 10.831872 6.918235 20.804732 5.658458 1.529094 2.398524 2.993893 -7.399466 0.000000 0.000000 0.000000 -6.679524 -5.085387 3.110124 2.938818 -15.032589 -7.945407 27.796655 -8.304976 -3.422661 -23.467278 -6.853195 10.092437 0.000000 0.000000 0.000000 -6.679524 -5.085387 3.110124 0.000000 0.000000 0.000000 5.265060 1.636092 -2.140710 1.476995 0.189087 -0.737423 0.000000 0.000000 0.000000 1.440799 0.211210 -0.580904 0.892844 0.841852 0.069188 0.000000 0.000000 0.000000 1.440799 0.211210 -0.580904 -0.595444 -16.331997 -20.041817 12.881842 3.223698 -33.784971 -179.999800 -89.027629 -179.999991 0.000000 0.000000 0.000000 1.440799 0.211210 -0.580904 0.747688 18.526429 11.539870 9.993125 25.212711 39.777328 -179.999950 83.290537 179.999991 0.000000 0.000000 0.000000 
0.742813 92.789604 3.644970 0.000000 0.000000 0.000000 -6.596713 -5.253365 3.152972 -15.547640 10.824873 6.790025 21.531623 5.388223 1.541133 2.021814 3.482754 -7.327954 0.000000 0.000000 0.000000 -6.596713 -5.253365 3.152972 2.304858 -14.885120 -8.292458 28.613763 -8.168473 -3.422319 -23.731193 -6.899478 10.221734 0.000000 0.000000 0.000000 -6.596713 -5.253365 3.152972 0.000000 0.000000 0.000000 5.264674 1.556292 -2.176810 1.475393 0.084465 -0.727507 0.000000 0.000000 0.000000 1.440799 0.112362 -0.549885 0.881057 0.835746 0.017107 0.000000 0.000000 0.000000 1.440799 0.112362 -0.549885 -0.595444 -16.331997 -20.041819 13.192815 3.702762 -33.799055 179.998420 -88.760774 179.998420 0.000000 0.000000 0.000000 1.440799 0.112362 -0.549885 0.747125 18.548709 11.538031 9.854038 25.499108 40.033778 179.999991 83.518563 179.999991 0.000000 0.000000 0.000000 
